<svg xmlns="http://www.w3.org/2000/svg" viewBox="0 0 594 88.57"><defs><style>.cls-1{opacity:0.05;}.cls-2{fill:#fff;}</style></defs><g id="Layer_2" data-name="Layer 2"><g id="Layer_1-2" data-name="Layer 1"><g class="cls-1"><path class="cls-2" d="M29.59,62.88,39.1,0H58.43V88.57H45.27V25.08L35.7,88.57H22.54L12.17,25.94V88.57H0V0H19.33Z"/><path class="cls-2" d="M82.4,37.37h19.14V50H82.4V75.91h24V88.57H68.5V0h37.92V12.66h-24Z"/><path class="cls-2" d="M128.9,37.37h19.15V50H128.9V75.91h24V88.57H115V0h37.92V12.66h-24Z"/><path class="cls-2" d="M157.75,0h43V12.66H186.22V88.57H172.33V12.66H157.75Z"/><path class="cls-2" d="M222.85,0h43V12.66H251.32V88.57H237.43V12.66H222.85Z"/><path class="cls-2" d="M286,88.57h-13.9V0H286V38h15.81V0h14.2V88.57h-14.2V50.65H286Z"/><path class="cls-2" d="M340,37.37h19.15V50H340V75.91h24V88.57H326.12V0h37.93V12.66H340Z"/><path class="cls-2" d="M388.44,0h43V12.66H416.92V88.57H403V12.66H388.44Z"/><path class="cls-2" d="M451.63,37.37h19.15V50H451.63V75.91h24V88.57H437.73V0h37.93V12.66h-24Z"/><path class="cls-2" d="M529.27,88.57h-14l-2.41-16.06H495.79l-2.41,16.06H480.6L494.74,0h20.39Zm-31.75-28.1H511l-6.74-44.78Z"/><path class="cls-2" d="M565.16,62.88,574.67,0H594V88.57H580.84V25.08l-9.57,63.49H558.11L547.74,25.94V88.57H535.57V0H554.9Z"/></g></g></g></svg>