<svg xmlns="http://www.w3.org/2000/svg" viewBox="0 0 772.6 83.62"><defs><style>.cls-1{opacity:0.05;}.cls-2{fill:#fff;}</style></defs><g id="Layer_2" data-name="Layer 2"><g id="Layer_1-2" data-name="Layer 1"><g class="cls-1"><path class="cls-2" d="M18.91.91q19.14,0,19.14,20.22v10.6q0,20.16-19.14,20.16H12.82V82.6H0V.91ZM12.82,12.59V40.27h6.09q6.27,0,6.27-7.74V20.28q0-7.69-6.27-7.69Z"/><path class="cls-2" d="M70.81,82.6A23,23,0,0,1,70,79.29a57.93,57.93,0,0,1-.28-6.72V59.76q0-10.42-8.43-10.43H56.79V82.6H44V.91H63.34q19,0,19,18.8v6.44q0,12.59-8.43,16.57,8.55,3.54,8.54,17.38V72.69c0,4.4.46,7.71,1.37,9.91Zm-14-70V37.71h5q7.74,0,7.74-8.66V21q0-8.43-6.55-8.43Z"/><path class="cls-2" d="M89.83,20.51Q89.83,0,109.31,0T128.8,20.51V63q0,20.5-19.49,20.51T89.83,63ZM102.65,63.8q0,8.08,6.66,8.09T116,63.8V19.71q0-8-6.67-8t-6.66,8Z"/><path class="cls-2" d="M137.06.91h20.27q19.14,0,19.14,20.22v41.3q0,20.17-19.14,20.17H137.06Zm12.81,11.68V70.92h7.24q6.54,0,6.55-7.92V20.51q0-7.92-6.55-7.92Z"/><path class="cls-2" d="M196.87.91v63q0,8,6.66,8t6.67-8V.91h12.13V63.12q0,20.51-19.14,20.5t-19.14-20.5V.91Z"/><path class="cls-2" d="M268.3,52.12V63q0,20.5-19.14,20.51T230,63V20.51Q230,0,249.16,0T268.3,20.51v8H256.17V19.71q0-8-6.67-8t-6.66,8V63.8q0,8,6.66,8t6.67-8V52.12Z"/><path class="cls-2" d="M272.57.91h39.65V12.59H298.83v70H286v-70H272.57Z"/><path class="cls-2" d="M335.35,0q18.9,0,18.91,20.51v4.33H342.13V19.71q0-8-6.44-8t-6.44,8a17,17,0,0,0,3.93,10.59,42.12,42.12,0,0,0,4.05,4.33l3.41,3.19,1.2,1.09a62.79,62.79,0,0,1,4.56,4.55,34.52,34.52,0,0,1,4,5.3A26.6,26.6,0,0,1,354.37,63q0,20.5-19.14,20.51T316.09,63V55.08h12.14V63.8q0,8,6.66,8t6.61-8a17,17,0,0,0-3.88-10.54,47.55,47.55,0,0,0-4-4.38L329,44.6q-2.85-2.61-4.62-4.55a40.24,40.24,0,0,1-4-5.24,26.93,26.93,0,0,1-3.93-14.3Q316.43,0,335.35,0Z"/><path class="cls-2" d="M379.78,56.57q0-13.22,8.88-17.15-8.88-3.77-8.88-16.81V21.13Q379.78.91,398.92.91h14.69V12.59H399.15q-6.56,0-6.56,7.92v5.07q0,8.59,7.69,8.6h5.64V25.06h12.82v9.12h3.36V45.86h-3.36V72.69c0,4.4.48,7.71,1.43,9.91H407.06l-.68-2.45a35.94,35.94,0,0,1-.46-4q-3.41,7.35-11.9,7.35-14.25,0-14.24-18.63Zm12.81,7.23q0,8.08,6.67,8.09,6.33,0,6.66-7.12V45.86H401q-8.44,0-8.44,10.36Z"/><path class="cls-2" d="M463.29,0q18.9,0,18.91,20.51v4.33H470.07V19.71q0-8-6.44-8t-6.44,8a17,17,0,0,0,3.93,10.59,43.27,43.27,0,0,0,4.05,4.33l3.41,3.19,1.2,1.09a62.79,62.79,0,0,1,4.56,4.55,34.52,34.52,0,0,1,4,5.3A26.6,26.6,0,0,1,482.31,63q0,20.5-19.14,20.51T444,63V55.08h12.14V63.8q0,8,6.66,8t6.61-8a17,17,0,0,0-3.87-10.54,49.3,49.3,0,0,0-4.05-4.38l-4.61-4.28q-2.85-2.61-4.62-4.55a39.25,39.25,0,0,1-4-5.24,26.93,26.93,0,0,1-3.93-14.3Q444.38,0,463.29,0Z"/><path class="cls-2" d="M502.36,35.37H520V47H502.36V70.92h22.16V82.6h-35V.91h35V12.59H502.36Z"/><path class="cls-2" d="M559.27,82.6a22.8,22.8,0,0,1-.85-3.31,57.43,57.43,0,0,1-.29-6.72V59.76q0-10.42-8.43-10.43h-4.44V82.6H532.44V.91h19.37q19,0,19,18.8v6.44q0,12.59-8.44,16.57Q571,46.26,571,60.1V72.69c0,4.4.45,7.71,1.37,9.91Zm-14-70V37.71h5q7.76,0,7.75-8.66V21q0-8.43-6.55-8.43Z"/><path class="cls-2" d="M598.69,67.56,608.49.91h11.79L607.69,82.6H588.55L576,.91h12.93Z"/><path class="cls-2" d="M626.2.91H639V82.6H626.2Z"/><path class="cls-2" d="M685.62,52.12V63q0,20.5-19.14,20.51T647.34,63V20.51Q647.34,0,666.48,0t19.14,20.51v8H673.48V19.71q0-8-6.66-8t-6.67,8V63.8q0,8,6.67,8t6.66-8V52.12Z"/><path class="cls-2" d="M706.18,35.37h17.66V47H706.18V70.92h22.16V82.6h-35V.91h35V12.59H706.18Z"/><path class="cls-2" d="M753.58,0q18.9,0,18.91,20.51v4.33H760.35V19.71q0-8-6.43-8t-6.44,8a17,17,0,0,0,3.93,10.59,43,43,0,0,0,4,4.33l3.42,3.19,1.2,1.09a62.79,62.79,0,0,1,4.56,4.55,34.52,34.52,0,0,1,4,5.3A26.6,26.6,0,0,1,772.6,63q0,20.5-19.14,20.51T734.32,63V55.08h12.13V63.8q0,8,6.67,8t6.61-8a17,17,0,0,0-3.88-10.54,47.55,47.55,0,0,0-4-4.38L747.2,44.6q-2.85-2.61-4.62-4.55a40.24,40.24,0,0,1-4-5.24,26.93,26.93,0,0,1-3.93-14.3Q734.66,0,753.58,0Z"/></g></g></g></svg>