<svg xmlns="http://www.w3.org/2000/svg" viewBox="0 0 32.5 32.5"><defs><style>.cls-1{fill:none;stroke:#fff;stroke-linecap:round;stroke-miterlimit:10;stroke-width:1.5px;}.cls-2{fill:#fff;fill-rule:evenodd;}</style></defs><g id="Layer_2" data-name="Layer 2"><g id="Layer_1-2" data-name="Layer 1"><circle class="cls-1" cx="16.25" cy="16.25" r="15.5"/><g id="WA_Logo" data-name="WA Logo"><path class="cls-2" d="M23.71,9A9.84,9.84,0,0,0,8.23,20.85L6.84,25.94l5.21-1.37a9.72,9.72,0,0,0,4.7,1.2h0A9.84,9.84,0,0,0,23.71,9Zm-7,15.13h0A8.18,8.18,0,0,1,12.59,23l-.3-.18L9.2,23.6l.82-3-.19-.31a8.17,8.17,0,1,1,6.92,3.83ZM21.23,18c-.24-.12-1.45-.72-1.68-.8s-.38-.12-.55.12a12.18,12.18,0,0,1-.78,1c-.14.16-.28.18-.53.06a6.78,6.78,0,0,1-2-1.22,7.46,7.46,0,0,1-1.37-1.7.35.35,0,0,1,.11-.5c.11-.11.24-.29.37-.43a1.91,1.91,0,0,0,.24-.41.46.46,0,0,0,0-.43c-.06-.13-.55-1.34-.76-1.83s-.4-.41-.55-.42h-.47a.91.91,0,0,0-.66.31,2.76,2.76,0,0,0-.86,2.05,4.73,4.73,0,0,0,1,2.54A11,11,0,0,0,17,20a13.79,13.79,0,0,0,1.41.51,3.21,3.21,0,0,0,1.54.1,2.51,2.51,0,0,0,1.66-1.17,1.89,1.89,0,0,0,.14-1.16C21.64,18.17,21.48,18.11,21.23,18Z"/></g></g></g></svg>