<svg xmlns="http://www.w3.org/2000/svg" viewBox="0 0 54.67 40.5"><defs><style>.cls-1{fill:none;stroke:#fff;stroke-miterlimit:10;stroke-width:1.5px;}.cls-2{fill:#fff;}</style></defs><g id="Layer_2" data-name="Layer 2"><g id="Layer_1-2" data-name="Layer 1"><path class="cls-1" d="M48.38.75H6.29A5.54,5.54,0,0,0,.75,6.29V26.66A5.54,5.54,0,0,0,6.29,32.2H16.58a2.62,2.62,0,0,1,1.71.63l7.37,6.3a2.56,2.56,0,0,0,3.35,0l7.37-6.3a2.62,2.62,0,0,1,1.71-.63H48.38a5.54,5.54,0,0,0,5.54-5.54V6.29A5.54,5.54,0,0,0,48.38.75Z"/><path class="cls-2" d="M22.12,24.27,15.06,19a4.91,4.91,0,0,1-1.72-2.3c-1.29-3.78,2.52-8.14,6.75-6.24l.3.15,1.73.89,1.73-.89.29-.15c4.23-1.9,8,2.46,6.75,6.24A4.91,4.91,0,0,1,29.17,19Z"/></g></g></svg>