<svg xmlns="http://www.w3.org/2000/svg" viewBox="0 0 32.5 32.5"><defs><style>.cls-1{fill:none;stroke:#fff;stroke-linecap:round;stroke-miterlimit:10;stroke-width:1.5px;}.cls-2{fill:#fff;}</style></defs><g id="Layer_2" data-name="Layer 2"><g id="Layer_1-2" data-name="Layer 1"><path class="cls-1" d="M16.25.75a15.5,15.5,0,1,0,15.5,15.5A15.5,15.5,0,0,0,16.25.75Zm0,26.74A12.91,12.91,0,0,1,12.86,27a1,1,0,0,0-.63,0l-2.32,1a.93.93,0,0,1-1.31-.83L8.53,25.2a.94.94,0,0,0-.31-.67,11.11,11.11,0,0,1-3.68-8.4C4.54,9.6,9.65,4.77,16.25,4.77S28,9.6,28,16.13,22.85,27.49,16.25,27.49Z"/><path class="cls-2" d="M22.48,12.77l-3.7,2.8a.72.72,0,0,1-.85,0L15.2,13.52a1.76,1.76,0,0,0-2.54.47L9.22,19.45a.55.55,0,0,0,.8.74l3.7-2.8a.72.72,0,0,1,.85,0l2.73,2.06A1.76,1.76,0,0,0,19.84,19l3.44-5.46A.55.55,0,0,0,22.48,12.77Z"/></g></g></svg>